<?xml version="1.0" encoding="UTF-8"?>
<svg version="1.1" xmlns="http://www.w3.org/2000/svg" width="512" height="512">
<path d="M0 0 C2.52040664 0.01611263 5.03921081 0.00001365 7.55957031 -0.01904297 C57.40752571 -0.08342102 102.5515027 22.35721287 137.89550781 56.51611328 C150.15801862 69.20146928 160.21034054 83.88111424 168.52050781 99.39111328 C169.12765625 100.52291016 169.73480469 101.65470703 170.36035156 102.82080078 C176.33609281 114.35385063 180.80318637 126.18328631 184.20800781 138.70361328 C184.39830566 139.38834717 184.58860352 140.07308105 184.78466797 140.77856445 C188.82779457 156.39589002 190.07209769 172.00147864 189.95800781 188.07861328 C189.95344574 189.45101166 189.95344574 189.45101166 189.9487915 190.85113525 C189.87784383 205.32792856 189.08305609 219.29710142 185.52050781 233.39111328 C185.30088379 234.26799805 185.08125977 235.14488281 184.85498047 236.04833984 C181.85295794 247.63576438 177.7647779 258.63841316 172.52050781 269.39111328 C172.21918945 270.0129248 171.91787109 270.63473633 171.60742188 271.27539062 C163.96897712 286.81497798 153.94538191 300.44411646 142.52050781 313.39111328 C141.88371094 314.12716797 141.24691406 314.86322266 140.59082031 315.62158203 C138.91415177 317.55709111 137.22104112 319.47655405 135.52050781 321.39111328 C134.59818359 322.43525391 134.59818359 322.43525391 133.65722656 323.50048828 C128.80562756 328.94597417 123.83501307 334.27147739 118.83300781 339.57861328 C117.80119385 340.67447754 117.80119385 340.67447754 116.74853516 341.79248047 C113.43006599 345.31434218 110.10465456 348.82903116 106.76269531 352.32861328 C99.16380223 360.31984051 92.06623555 368.51280531 85.52050781 377.39111328 C85.07642578 377.98939941 84.63234375 378.58768555 84.17480469 379.20410156 C75.78577049 390.61982687 69.00946026 402.81721621 62.52050781 415.39111328 C62.11010254 416.17921387 61.69969727 416.96731445 61.27685547 417.77929688 C53.97117922 431.96233321 48.22001551 446.81480518 42.40429688 461.65234375 C39.15147577 469.93596727 35.8189494 478.16670694 32.21582031 486.30517578 C31.88983856 487.04378342 31.56385681 487.78239105 31.22799683 488.54338074 C26.91582826 498.16366708 21.68742925 505.71227156 12.73144531 511.55908203 C6.61825345 513.8596295 -2.98596688 513.55752415 -8.97949219 510.89111328 C-26.1555804 500.08202328 -32.21035689 473.25371265 -39.47949219 455.39111328 C-44.72710716 442.51245286 -49.95428369 429.72143732 -56.43017578 417.40429688 C-57.5798314 415.19860581 -58.69605936 412.97756056 -59.81152344 410.75439453 C-67.2005798 396.17622444 -75.9407595 382.89862021 -86.47949219 370.39111328 C-86.8974707 369.88966797 -87.31544922 369.38822266 -87.74609375 368.87158203 C-95.33936212 359.77485738 -103.32995983 351.09291187 -111.48242188 342.49707031 C-141.83052648 310.4942891 -169.62773876 278.53293529 -180.29199219 234.64111328 C-180.48696289 233.83899414 -180.68193359 233.036875 -180.8828125 232.21044922 C-183.98391284 218.60826837 -184.82893756 205.25274982 -184.79516602 191.35888672 C-184.79201223 188.65827757 -184.81554324 185.95877519 -184.84082031 183.25830078 C-184.89819119 167.70061012 -183.08050547 152.58291276 -178.85449219 137.57861328 C-178.60070801 136.67248291 -178.34692383 135.76635254 -178.08544922 134.83276367 C-171.24443581 111.33880377 -160.26866343 89.15575145 -144.47949219 70.39111328 C-143.99448242 69.80749023 -143.50947266 69.22386719 -143.00976562 68.62255859 C-126.13554234 48.34134928 -106.74356901 32.76286796 -83.47949219 20.39111328 C-82.45082031 19.83552734 -81.42214844 19.27994141 -80.36230469 18.70751953 C-69.45778153 13.01884553 -58.0145603 8.92042098 -46.16699219 5.70361328 C-45.48241943 5.513396 -44.79784668 5.32317871 -44.0925293 5.12719727 C-29.56806127 1.36620729 -14.96875115 -0.11317978 0 0 Z M-51.06933594 144.30517578 C-65.17679721 162.09794724 -68.58010878 181.81507244 -66.08105469 203.91455078 C-63.03097552 218.37271825 -54.9762035 230.33703437 -44.47949219 240.39111328 C-43.85042969 241.00470703 -43.22136719 241.61830078 -42.57324219 242.25048828 C-27.95940274 255.62353004 -9.20787113 259.2713042 9.98046875 258.5703125 C24.37814007 257.55455983 37.81724894 250.82944156 48.52050781 241.39111328 C49.27074219 240.73498047 50.02097656 240.07884766 50.79394531 239.40283203 C62.00852477 228.93461537 70.52736273 213.57186091 71.69750977 198.04199219 C72.24855225 176.24178557 68.55052073 158.94688551 53.89941406 141.89111328 C40.46208513 127.76978238 22.19400409 119.82692218 2.77050781 119.07861328 C-18.51996846 119.72377923 -36.96095339 128.43058546 -51.06933594 144.30517578 Z " fill="#49AA4D" transform="translate(253.4794921875,-0.39111328125)"/>
<path d="M0 0 C5.24471606 4.38381114 10.13522023 8.99708809 14.95483398 13.84130859 C16.09753502 14.98379059 16.09753502 14.98379059 17.26332092 16.14935303 C19.75995857 18.64668272 22.25304362 21.14752687 24.74609375 23.6484375 C26.48464954 25.38885998 28.22342744 27.12906061 29.9624176 28.86904907 C34.52332637 33.43376321 39.08122314 38.00147327 43.63848877 42.56982422 C48.29558054 47.23717278 52.95552903 51.90166724 57.61523438 56.56640625 C66.74627983 65.70815409 75.87424173 74.85297437 85 84 C84.59234406 84.5378009 84.18468811 85.07560181 83.76467896 85.62969971 C83.22761322 86.34132263 82.69054749 87.05294556 82.13720703 87.78613281 C81.60580109 88.48893372 81.07439514 89.19173462 80.52688599 89.91583252 C67.4987896 107.69891198 64.00757914 126.88889434 66.390625 148.55078125 C70.24236976 166.40213679 81.74115463 182.15639992 97 192 C113.83333777 202.06102532 132.9584582 205.01832679 152 200.375 C157.78800632 198.60959502 163.09545714 196.24251196 168.4140625 193.3671875 C170.89490873 192.05556185 173.37804224 190.9938829 176 190 C170.54773146 196.63558765 164.4913697 202.63557636 158.41088867 208.68676758 C157.23900408 209.8567304 156.06734888 211.02692303 154.89590454 212.19732666 C152.38465977 214.70542391 149.87187342 217.21196252 147.3578701 219.71729469 C143.38477187 223.67682632 139.41553043 227.64020917 135.44685364 231.60417175 C127.03003227 240.00991857 118.60897401 248.41141494 110.1875 256.8125 C101.07788888 265.90008898 91.96901345 274.98840827 82.86498815 284.08159369 C78.91687087 288.02472048 74.96632638 291.96539454 71.01392496 295.9042269 C68.56276582 298.34794912 66.11366011 300.79372122 63.66511917 303.24006653 C62.52633802 304.37696933 61.38668968 305.51300425 60.24612999 306.64812279 C58.69431472 308.1927648 57.14557326 309.74042383 55.59757996 311.28889465 C54.29433163 312.58881206 54.29433163 312.58881206 52.96475506 313.91499043 C50.95795004 315.84415786 50.95795004 315.84415786 50 318 C45.568604 316.41358138 43.09450494 312.87687126 40.1875 309.375 C35.48299242 303.82932459 30.67888032 298.41424559 25.6875 293.125 C25.06883057 292.46918945 24.45016113 291.81337891 23.81274414 291.13769531 C22.53642837 289.78751602 21.2591537 288.43824256 19.98095703 287.08984375 C-10.35734256 255.08394721 -38.14900632 223.13869504 -48.8125 179.25 C-49.0074707 178.44788086 -49.20244141 177.64576172 -49.40332031 176.81933594 C-52.50442065 163.21715509 -53.34944537 149.86163654 -53.31567383 135.96777344 C-53.31252004 133.26716429 -53.33605106 130.5676619 -53.36132812 127.8671875 C-53.41869901 112.30949684 -51.60101329 97.19179948 -47.375 82.1875 C-47.12121582 81.28136963 -46.86743164 80.37523926 -46.60595703 79.44165039 C-39.77739604 55.99045559 -28.83186136 33.69063012 -13 15 C-12.47776855 14.37915527 -11.95553711 13.75831055 -11.41748047 13.11865234 C-2.26164505 2.26164505 -2.26164505 2.26164505 0 0 Z " fill="#FDC007" transform="translate(122,55)"/>
<path d="M0 0 C2.52040664 0.01611263 5.03921081 0.00001365 7.55957031 -0.01904297 C57.40752571 -0.08342102 102.5515027 22.35721287 137.89550781 56.51611328 C150.16331921 69.20695265 160.18981935 83.88677641 168.52050781 99.39111328 C169.12378906 100.50357422 169.72707031 101.61603516 170.34863281 102.76220703 C175.10413038 111.83987412 175.10413038 111.83987412 174.52050781 116.39111328 C172.70889282 118.81796741 172.70889282 118.81796741 170.11669922 121.39619446 C169.40616111 122.11314075 169.40616111 122.11314075 168.68126869 122.84457082 C167.08984917 124.44423081 165.48120865 126.02535752 163.87207031 127.60717773 C162.72815399 128.74968382 161.58533728 129.8932918 160.44354248 131.03791809 C157.339037 134.14386006 154.21933984 137.234129 151.09673309 140.32185769 C147.83666403 143.55070247 144.59071835 146.79368128 141.34326172 150.03520203 C135.19084638 156.17206743 129.02579486 162.29607466 122.85612679 168.41558951 C115.83312559 175.38273324 108.82429112 182.36405421 101.81662369 189.34661543 C87.4003173 203.7106376 72.96627056 218.05671946 58.52050781 232.39111328 C58.52050781 228.59745276 59.75283062 227.14544295 61.77050781 223.95361328 C71.34834771 207.97762122 73.36997903 188.3724443 68.95800781 170.32861328 C62.84178879 150.88930178 50.40381355 136.47717926 32.45800781 127.01611328 C16.33791525 119.40911535 -1.41885482 118.37463341 -18.47949219 123.39111328 C-28.62927872 127.03914603 -37.5423613 132.05853045 -45.47949219 139.39111328 C-48.55627899 138.01903571 -50.66229861 136.45618635 -53.0355835 134.07553101 C-53.72262863 133.3912352 -54.40967377 132.70693939 -55.11753845 132.00190735 C-55.86056717 131.25168808 -56.60359589 130.50146881 -57.36914062 129.72851562 C-58.15976395 128.93818436 -58.95038727 128.14785309 -59.76496887 127.33357239 C-62.37770328 124.71944438 -64.98328172 122.09830285 -67.58886719 119.47705078 C-69.39875411 117.66343385 -71.20908302 115.85025791 -73.01983643 114.0375061 C-77.2981129 109.75237294 -81.5719052 105.46281678 -85.84355855 101.171085 C-90.70780237 96.28447549 -95.57773605 91.40355338 -100.44815397 86.52309871 C-110.46494017 76.48541539 -120.4745664 66.44061735 -130.47949219 56.39111328 C-120.35103264 34.71081179 -82.95875976 18.29135453 -61.68408203 10.47509766 C-56.57004406 8.67757088 -51.39646478 7.12796004 -46.16699219 5.70361328 C-45.48209717 5.51323486 -44.79720215 5.32285645 -44.09155273 5.12670898 C-29.56678025 1.36722108 -14.96881134 -0.11318023 0 0 Z " fill="#1E88E4" transform="translate(253.4794921875,-0.39111328125)"/>
<path d="M0 0 C5.24471606 4.38381114 10.13522023 8.99708809 14.95483398 13.84130859 C16.09753502 14.98379059 16.09753502 14.98379059 17.26332092 16.14935303 C19.75995857 18.64668272 22.25304362 21.14752687 24.74609375 23.6484375 C26.48464954 25.38885998 28.22342744 27.12906061 29.9624176 28.86904907 C34.52332637 33.43376321 39.08122314 38.00147327 43.63848877 42.56982422 C48.29558054 47.23717278 52.95552903 51.90166724 57.61523438 56.56640625 C66.74627983 65.70815409 75.87424173 74.85297437 85 84 C44 125 3 166 -38 207 C-40.41698903 204.69100426 -41.59548184 202.99658631 -42.68359375 199.81640625 C-43.11260986 198.5629541 -43.11260986 198.5629541 -43.55029297 197.28417969 C-43.84307129 196.38602539 -44.13584961 195.48787109 -44.4375 194.5625 C-44.74316895 193.63469727 -45.04883789 192.70689453 -45.36376953 191.75097656 C-50.24984973 176.43763355 -53.11901735 160.68426024 -53.203125 144.6015625 C-53.20882507 143.72712494 -53.21452515 142.85268738 -53.22039795 141.95175171 C-53.22978705 140.10798324 -53.23635748 138.26419845 -53.24023438 136.42041016 C-53.24985441 133.66667461 -53.28090098 130.91371465 -53.3125 128.16015625 C-53.40696116 112.48004388 -51.63494451 97.312271 -47.375 82.1875 C-47.12121582 81.28136963 -46.86743164 80.37523926 -46.60595703 79.44165039 C-39.77739604 55.99045559 -28.83186136 33.69063012 -13 15 C-12.47776855 14.37915527 -11.95553711 13.75831055 -11.41748047 13.11865234 C-2.26164505 2.26164505 -2.26164505 2.26164505 0 0 Z " fill="#F24336" transform="translate(122,55)"/>
<path d="M0 0 C14.10690765 5.43085609 26.08051475 16.81784334 37 27 C37.73992187 27.68578125 38.47984375 28.3715625 39.2421875 29.078125 C58.25004576 47.3419034 72.43906669 71.41805008 82.125 95.75 C82.40819092 96.45165283 82.69138184 97.15330566 82.9831543 97.8762207 C83.74987065 99.90090281 84.38641131 101.92400829 85 104 C85.20994567 104.67021399 85.41989134 105.34042799 85.636199 106.0309515 C86.44498964 109.70663736 86.59819839 112.01610105 84.60162544 115.30000496 C82.37372784 117.86110522 80.02675658 120.20938498 77.57641602 122.55883789 C76.66947998 123.46723419 75.76254395 124.37563049 74.828125 125.31155396 C72.34796892 127.79457318 69.83825322 130.24560398 67.32198834 132.69195104 C64.69491125 135.256409 62.09622601 137.84931786 59.49436951 140.4393158 C54.56651486 145.3361197 49.61373438 150.20688174 44.6514377 155.06875271 C39.00188274 160.6064368 33.38078139 166.1726285 27.76186478 171.74137127 C16.20589457 183.19288501 4.61479823 194.60815092 -7 206 C-7 202.20633948 -5.76767719 200.75432967 -3.75 197.5625 C5.8278399 181.58650794 7.84947122 161.98133102 3.4375 143.9375 C-2.67871902 124.4981885 -15.11669426 110.08606598 -33.0625 100.625 C-49.15230438 93.03229493 -66.97030673 91.94413095 -84 97 C-93.07854866 100.34617796 -101.61317698 104.71334211 -109 111 C-107.48722127 107.44910082 -105.41879899 105.17191655 -102.69735718 102.45684814 C-101.79429337 101.551035 -100.89122955 100.64522186 -99.96080017 99.71195984 C-98.95752037 98.71575778 -97.95414497 97.71965198 -96.95068359 96.72363281 C-95.8957852 95.66929867 -94.84132723 94.61452372 -93.78727722 93.55934143 C-90.92624565 90.6977359 -88.0590883 87.84233993 -85.19079924 84.98801136 C-82.19366458 82.0033768 -79.20219042 79.01307984 -76.21011353 76.02337646 C-70.54408256 70.36356237 -64.8729725 64.70886597 -59.20002425 59.05598617 C-52.74150354 52.61981797 -46.28865902 46.17797174 -39.83628726 39.73564005 C-26.56383508 26.48409457 -13.28426419 13.23970374 0 0 Z " fill="#42A5F4" transform="translate(319,26)"/>
<path d="M0 0 C40.19488543 15.31233731 72.85766086 47.51286882 93 85 C93.60328125 86.11246094 94.2065625 87.22492188 94.828125 88.37109375 C99.61496806 97.50859557 99.61496806 97.50859557 99 102 C96.98046875 104.5871582 96.98046875 104.5871582 94.1875 107.30078125 C93.69918701 107.7820195 93.21087402 108.26325775 92.70776367 108.75907898 C91.14987368 110.28904505 89.57549414 111.80068889 88 113.3125 C86.93896781 114.34844678 85.8790577 115.38554414 84.8203125 116.42382812 C82.22641492 118.96268464 79.61744058 121.48539649 77 124 C74.99753974 120.99630961 74.31714313 118.88468724 73.375 115.4375 C65.29183753 88.52356274 49.84156773 64.59711312 31 44 C30.14148438 43.05769531 29.28296875 42.11539063 28.3984375 41.14453125 C17.4591409 29.69297152 4.31123892 20.48944139 -9 12 C-8.60167969 11.55269531 -8.20335937 11.10539062 -7.79296875 10.64453125 C-7.26316406 10.03996094 -6.73335938 9.43539063 -6.1875 8.8125 C-5.66542969 8.22082031 -5.14335937 7.62914062 -4.60546875 7.01953125 C-2.83473147 4.79210747 -1.41729471 2.46430521 0 0 Z " fill="#2196F0" transform="translate(329,14)"/>
<path d="M0 0 C5.34868462 -0.07555187 10.69704225 -0.12924485 16.04614258 -0.16479492 C17.85641912 -0.1796529 19.66666124 -0.19994494 21.47680664 -0.22631836 C37.59611857 -0.45486573 53.16184521 1.01036657 68.75 5.3125 C69.90205933 5.62127075 69.90205933 5.62127075 71.07739258 5.9362793 C78.62402719 8.03512129 85.82474886 10.87892663 93 14 C92.45015228 17.87511727 90.72444669 19.59576506 87.9375 22.25 C86.83728516 23.30960938 86.83728516 23.30960938 85.71484375 24.390625 C85.14894531 24.92171875 84.58304687 25.4528125 84 26 C83.07703125 25.5153125 82.1540625 25.030625 81.203125 24.53125 C55.07828599 11.01605442 29.31439208 3.59214251 0 1 C0 0.67 0 0.34 0 0 Z " fill="#1A78CE" transform="translate(236,0)"/>
<path d="M0 0 C0 3.79330832 -1.17710681 5.01684801 -3.375 8.0625 C-4.00148438 8.94035156 -4.62796875 9.81820312 -5.2734375 10.72265625 C-7 13 -7 13 -9 15 C-9.495 14.01 -9.495 14.01 -10 13 C-23.92260242 26.87590074 -37.83948912 40.75750925 -51.74957848 54.64595413 C-58.20827121 61.09433026 -64.66882732 67.54081866 -71.13378906 73.98291016 C-76.76803641 79.59723544 -82.39877024 85.2150566 -88.02529681 90.83711982 C-91.00515853 93.81437216 -93.98676093 96.78983334 -96.97257614 99.76111603 C-99.78232694 102.55730166 -102.58735925 105.35813447 -105.38883018 108.16261482 C-106.41827147 109.19150547 -107.44943049 110.21868074 -108.48241997 111.24400902 C-109.89201266 112.64365759 -111.29486427 114.05008543 -112.69735718 115.45684814 C-113.48456839 116.24221577 -114.27177959 117.02758339 -115.08284569 117.83675003 C-116.85378022 119.83501071 -117.9596309 121.55797349 -119 124 C-119.7772131 122.31479263 -119.7772131 122.31479263 -120 120 C-118.24896336 117.63372421 -118.24896336 117.63372421 -115.56459045 114.96331787 C-114.83083267 114.2231519 -114.83083267 114.2231519 -114.08225149 113.46803308 C-112.43247096 111.80998637 -110.76539387 110.17049126 -109.09790039 108.53027344 C-107.91472347 107.3485062 -106.73264511 106.16563822 -105.55158997 104.98175049 C-102.3354634 101.76418525 -99.10411742 98.56230247 -95.86990285 95.36293316 C-92.49506725 92.01928585 -89.1343209 88.66153951 -85.77207947 85.30523682 C-79.40004845 78.94876636 -73.01537535 72.60515187 -66.62610763 66.26601243 C-59.35405716 59.04978646 -52.09614484 51.81941229 -44.83940899 44.58779097 C-29.90866175 29.70935202 -14.96017233 14.84884801 0 0 Z " fill="#E6B513" transform="translate(203,142)"/>
<path d="M0 0 C0.99 0.495 0.99 0.495 2 1 C-30.67 33.67 -63.34 66.34 -97 100 C-96.34 100.66 -95.68 101.32 -95 102 C-95.67546875 102.39832031 -96.3509375 102.79664063 -97.046875 103.20703125 C-97.93890625 103.73683594 -98.8309375 104.26664062 -99.75 104.8125 C-100.63171875 105.33457031 -101.5134375 105.85664063 -102.421875 106.39453125 C-104.71972797 107.82546696 -106.86506946 109.33894423 -109 111 C-107.48722127 107.44910082 -105.41879899 105.17191655 -102.69735718 102.45684814 C-101.79429337 101.551035 -100.89122955 100.64522186 -99.96080017 99.71195984 C-98.95752037 98.71575778 -97.95414497 97.71965198 -96.95068359 96.72363281 C-95.8957852 95.66929867 -94.84132723 94.61452372 -93.78727722 93.55934143 C-90.92624565 90.6977359 -88.0590883 87.84233993 -85.19079924 84.98801136 C-82.19366458 82.0033768 -79.20219042 79.01307984 -76.21011353 76.02337646 C-70.54408256 70.36356237 -64.8729725 64.70886597 -59.20002425 59.05598617 C-52.74150354 52.61981797 -46.28865902 46.17797174 -39.83628726 39.73564005 C-26.56383508 26.48409457 -13.28426419 13.23970374 0 0 Z " fill="#3CA1DF" transform="translate(319,26)"/>
<path d="M0 0 C0.66 0.33 1.32 0.66 2 1 C-2.66666667 5.66666667 -7.33333333 10.33333333 -12 15 C-12 11 -12 11 -9.375 8.203125 C-8.25992445 7.20752183 -7.13444431 6.22347586 -6 5.25 C-5.42765625 4.74339844 -4.8553125 4.23679687 -4.265625 3.71484375 C-2.85250146 2.46658463 -1.42736351 1.23195064 0 0 Z " fill="#2992C1" transform="translate(136,42)"/>
<path d="M0 0 C-0.67546875 0.39832031 -1.3509375 0.79664063 -2.046875 1.20703125 C-3.38492188 2.00173828 -3.38492188 2.00173828 -4.75 2.8125 C-5.63171875 3.33457031 -6.5134375 3.85664063 -7.421875 4.39453125 C-9.71972797 5.82546696 -11.86506946 7.33894423 -14 9 C-12.4411666 5.17377257 -10.04566418 2.74852621 -7 0 C-3.86650268 -1.04449911 -3.01031744 -0.93423645 0 0 Z " fill="#42A5C3" transform="translate(224,128)"/>
<path d="M0 0 C0 3.39593478 -0.52165948 4.06619881 -2.5 6.6875 C-2.9640625 7.31011719 -3.428125 7.93273437 -3.90625 8.57421875 C-4.2671875 9.04472656 -4.628125 9.51523438 -5 10 C-5.66 9.01 -6.32 8.02 -7 7 C-4.69 4.69 -2.38 2.38 0 0 Z " fill="#C1B023" transform="translate(203,142)"/>
<path d="M0 0 C0.33 1.32 0.66 2.64 1 4 C-1.97 6.475 -1.97 6.475 -5 9 C-3.7508258 5.54074837 -2.32472205 2.85306797 0 0 Z " fill="#3FADC5" transform="translate(316,223)"/>
</svg>
